# xmcd
#
# Track frame offsets: 
#        150
#        17828
#        31631
#        47882
#        64129
#        76058
#        92109
#        107971
#        123994
#        141016
#        158189
#        172989
#        189142
#        203814
#        229956
#
# Disc length: 3241 seconds
#
# Revision: 4
# Processed by: cddbd v1.5.2PL0 Copyright (c) Steve Scherf et al.
# Submitted via: ExactAudioCopy v0.99pb4
#
DISCID=bd0ca70f
DTITLE=Bläck Fööss - Usjebomb - CD 2
DYEAR=2005
DGENRE=Kölsch
TTITLE0=Trizonesien-Song
TTITLE1=De Währungs-Riform
TTITLE2=D'r Molli
TTITLE3=Et Päckche us Amerika
TTITLE4=Nüngzehnhundert Johr steiht uns Kölle am Rhing
TTITLE5=Dat Glockespill vum Rothuusturm
TTITLE6=D'r decke Pitter
TTITLE7=Nor am Dreikünningepöötzge
TTITLE8=Zwesche Kühl, Spinat un Kappes
TTITLE9=O Mosella
TTITLE10=Op d'r Trepp vum ahle Gürzenich
TTITLE11=Fastelovend em Himmel (un et Arnöldche fleut)
TTITLE12=Jo, die Cowboys vum Rheinesstrand
TTITLE13=Am Dom zo Kölle
TTITLE14=Daten-CD
EXTD=YEAR: 2005
EXTT0=
EXTT1=
EXTT2=
EXTT3=
EXTT4=
EXTT5=
EXTT6=
EXTT7=
EXTT8=
EXTT9=
EXTT10=
EXTT11=
EXTT12=
EXTT13=
EXTT14=
PLAYORDER=
